<svg xmlns="http://www.w3.org/2000/svg" version="1.1" xmlns:xlink="http://www.w3.org/1999/xlink" xmlns:svgjs="http://svgjs.com/svgjs" width="1440" height="560" preserveAspectRatio="none" viewBox="0 0 1440 560"><g mask="url(&quot;#SvgjsMask2481&quot;)" fill="none"><rect width="1440" height="560" x="0" y="0" fill="url(#SvgjsLinearGradient2482)"></rect><path d="M-55.06 401.42L-55.06 401.42" stroke="#132e65" stroke-width="1.5"></path><path d="M-55.06 401.42L79.86 382.16" stroke="#132e65" stroke-width="1.5"></path><path d="M-55.06 401.42L-84.63 545.81" stroke="#132e65" stroke-width="1.5"></path><path d="M-55.06 401.42L85.37 495.35" stroke="#132e65" stroke-width="1.5"></path><path d="M-55.06 401.42L195.85 389.26" stroke="#132e65" stroke-width="1.5"></path><path d="M-55.06 401.42L-78.02 661.87" stroke="#132e65" stroke-width="1.5"></path><path d="M-84.63 545.81L-84.63 545.81" stroke="#132e65" stroke-width="1.5"></path><path d="M-84.63 545.81L-78.02 661.87" stroke="#132e65" stroke-width="1.5"></path><path d="M-84.63 545.81L85.37 495.35" stroke="#132e65" stroke-width="1.5"></path><path d="M-84.63 545.81L79.86 382.16" stroke="#132e65" stroke-width="1.5"></path><path d="M-84.63 545.81L106.82 678.02" stroke="#132e65" stroke-width="1.5"></path><path d="M-84.63 545.81L195.85 389.26" stroke="#132e65" stroke-width="1.5"></path><path d="M-78.02 661.87L-78.02 661.87" stroke="#132e65" stroke-width="1.5"></path><path d="M-78.02 661.87L106.82 678.02" stroke="#132e65" stroke-width="1.5"></path><path d="M79.86 382.16L79.86 382.16" stroke="#132e65" stroke-width="1.5"></path><path d="M79.86 382.16L85.37 495.35" stroke="#132e65" stroke-width="1.5"></path><path d="M79.86 382.16L195.85 389.26" stroke="#132e65" stroke-width="1.5"></path><path d="M85.37 495.35L85.37 495.35" stroke="#132e65" stroke-width="1.5"></path><path d="M85.37 495.35L195.85 389.26" stroke="#132e65" stroke-width="1.5"></path><path d="M85.37 495.35L250.62 514.11" stroke="#132e65" stroke-width="1.5"></path><path d="M106.82 678.02L106.82 678.02" stroke="#132e65" stroke-width="1.5"></path><path d="M106.82 678.02L201.17 701.02" stroke="#132e65" stroke-width="1.5"></path><path d="M106.82 678.02L85.37 495.35" stroke="#132e65" stroke-width="1.5"></path><path d="M195.85 389.26L195.85 389.26" stroke="#132e65" stroke-width="1.5"></path><path d="M195.85 389.26L250.62 514.11" stroke="#132e65" stroke-width="1.5"></path><path d="M250.62 514.11L250.62 514.11" stroke="#132e65" stroke-width="1.5"></path><path d="M250.62 514.11L392.52 505.75" stroke="#132e65" stroke-width="1.5"></path><path d="M250.62 514.11L201.17 701.02" stroke="#132e65" stroke-width="1.5"></path><path d="M250.62 514.11L79.86 382.16" stroke="#132e65" stroke-width="1.5"></path><path d="M201.17 701.02L201.17 701.02" stroke="#132e65" stroke-width="1.5"></path><path d="M201.17 701.02L387.53 690.33" stroke="#132e65" stroke-width="1.5"></path><path d="M201.17 701.02L85.37 495.35" stroke="#132e65" stroke-width="1.5"></path><path d="M408.65 353.3L408.65 353.3" stroke="#132e65" stroke-width="1.5"></path><path d="M408.65 353.3L511.12 380.43" stroke="#132e65" stroke-width="1.5"></path><path d="M408.65 353.3L392.52 505.75" stroke="#132e65" stroke-width="1.5"></path><path d="M408.65 353.3L195.85 389.26" stroke="#132e65" stroke-width="1.5"></path><path d="M408.65 353.3L250.62 514.11" stroke="#132e65" stroke-width="1.5"></path><path d="M408.65 353.3L529.05 557.36" stroke="#132e65" stroke-width="1.5"></path><path d="M392.52 505.75L392.52 505.75" stroke="#132e65" stroke-width="1.5"></path><path d="M392.52 505.75L529.05 557.36" stroke="#132e65" stroke-width="1.5"></path><path d="M387.53 690.33L387.53 690.33" stroke="#132e65" stroke-width="1.5"></path><path d="M387.53 690.33L521 692.06" stroke="#132e65" stroke-width="1.5"></path><path d="M387.53 690.33L392.52 505.75" stroke="#132e65" stroke-width="1.5"></path><path d="M511.12 380.43L511.12 380.43" stroke="#132e65" stroke-width="1.5"></path><path d="M511.12 380.43L680.97 393.03" stroke="#132e65" stroke-width="1.5"></path><path d="M529.05 557.36L529.05 557.36" stroke="#132e65" stroke-width="1.5"></path><path d="M529.05 557.36L521 692.06" stroke="#132e65" stroke-width="1.5"></path><path d="M529.05 557.36L644.16 662.12" stroke="#132e65" stroke-width="1.5"></path><path d="M521 692.06L521 692.06" stroke="#132e65" stroke-width="1.5"></path><path d="M521 692.06L644.16 662.12" stroke="#132e65" stroke-width="1.5"></path><path d="M521 692.06L392.52 505.75" stroke="#132e65" stroke-width="1.5"></path><path d="M649.82 223.79L649.82 223.79" stroke="#132e65" stroke-width="1.5"></path><path d="M649.82 223.79L793.4 251.86" stroke="#132e65" stroke-width="1.5"></path><path d="M649.82 223.79L680.97 393.03" stroke="#132e65" stroke-width="1.5"></path><path d="M649.82 223.79L511.12 380.43" stroke="#132e65" stroke-width="1.5"></path><path d="M649.82 223.79L848.64 78.11" stroke="#132e65" stroke-width="1.5"></path><path d="M649.82 223.79L839.34 391.48" stroke="#132e65" stroke-width="1.5"></path><path d="M649.82 223.79L408.65 353.3" stroke="#132e65" stroke-width="1.5"></path><path d="M680.97 393.03L680.97 393.03" stroke="#132e65" stroke-width="1.5"></path><path d="M680.97 393.03L687.27 504.67" stroke="#132e65" stroke-width="1.5"></path><path d="M680.97 393.03L839.34 391.48" stroke="#132e65" stroke-width="1.5"></path><path d="M680.97 393.03L793.4 251.86" stroke="#132e65" stroke-width="1.5"></path><path d="M687.27 504.67L687.27 504.67" stroke="#132e65" stroke-width="1.5"></path><path d="M687.27 504.67L795.73 538.11" stroke="#132e65" stroke-width="1.5"></path><path d="M687.27 504.67L644.16 662.12" stroke="#132e65" stroke-width="1.5"></path><path d="M687.27 504.67L529.05 557.36" stroke="#132e65" stroke-width="1.5"></path><path d="M687.27 504.67L839.34 391.48" stroke="#132e65" stroke-width="1.5"></path><path d="M687.27 504.67L511.12 380.43" stroke="#132e65" stroke-width="1.5"></path><path d="M644.16 662.12L644.16 662.12" stroke="#132e65" stroke-width="1.5"></path><path d="M644.16 662.12L795.73 538.11" stroke="#132e65" stroke-width="1.5"></path><path d="M644.16 662.12L842.26 664.77" stroke="#132e65" stroke-width="1.5"></path><path d="M644.16 662.12L387.53 690.33" stroke="#132e65" stroke-width="1.5"></path><path d="M848.64 78.11L848.64 78.11" stroke="#132e65" stroke-width="1.5"></path><path d="M848.64 78.11L943.79 47.83" stroke="#132e65" stroke-width="1.5"></path><path d="M848.64 78.11L952.94 191.8" stroke="#132e65" stroke-width="1.5"></path><path d="M848.64 78.11L969.39 -49.33" stroke="#132e65" stroke-width="1.5"></path><path d="M848.64 78.11L793.4 251.86" stroke="#132e65" stroke-width="1.5"></path><path d="M793.4 251.86L793.4 251.86" stroke="#132e65" stroke-width="1.5"></path><path d="M793.4 251.86L839.34 391.48" stroke="#132e65" stroke-width="1.5"></path><path d="M793.4 251.86L952.94 191.8" stroke="#132e65" stroke-width="1.5"></path><path d="M839.34 391.48L839.34 391.48" stroke="#132e65" stroke-width="1.5"></path><path d="M839.34 391.48L795.73 538.11" stroke="#132e65" stroke-width="1.5"></path><path d="M839.34 391.48L991.09 353.55" stroke="#132e65" stroke-width="1.5"></path><path d="M795.73 538.11L795.73 538.11" stroke="#132e65" stroke-width="1.5"></path><path d="M795.73 538.11L842.26 664.77" stroke="#132e65" stroke-width="1.5"></path><path d="M842.26 664.77L842.26 664.77" stroke="#132e65" stroke-width="1.5"></path><path d="M842.26 664.77L957.89 681.53" stroke="#132e65" stroke-width="1.5"></path><path d="M842.26 664.77L961.76 555.38" stroke="#132e65" stroke-width="1.5"></path><path d="M969.39 -49.33L969.39 -49.33" stroke="#132e65" stroke-width="1.5"></path><path d="M969.39 -49.33L943.79 47.83" stroke="#132e65" stroke-width="1.5"></path><path d="M969.39 -49.33L1141.64 -61.45" stroke="#132e65" stroke-width="1.5"></path><path d="M969.39 -49.33L1121.8 68.92" stroke="#132e65" stroke-width="1.5"></path><path d="M969.39 -49.33L952.94 191.8" stroke="#132e65" stroke-width="1.5"></path><path d="M969.39 -49.33L1252.32 -92.21" stroke="#132e65" stroke-width="1.5"></path><path d="M943.79 47.83L943.79 47.83" stroke="#132e65" stroke-width="1.5"></path><path d="M952.94 191.8L952.94 191.8" stroke="#132e65" stroke-width="1.5"></path><path d="M952.94 191.8L943.79 47.83" stroke="#132e65" stroke-width="1.5"></path><path d="M952.94 191.8L991.09 353.55" stroke="#132e65" stroke-width="1.5"></path><path d="M952.94 191.8L1145.43 216.91" stroke="#132e65" stroke-width="1.5"></path><path d="M952.94 191.8L1121.8 68.92" stroke="#132e65" stroke-width="1.5"></path><path d="M991.09 353.55L991.09 353.55" stroke="#132e65" stroke-width="1.5"></path><path d="M991.09 353.55L1129.66 406.61" stroke="#132e65" stroke-width="1.5"></path><path d="M991.09 353.55L1109.13 502.97" stroke="#132e65" stroke-width="1.5"></path><path d="M991.09 353.55L961.76 555.38" stroke="#132e65" stroke-width="1.5"></path><path d="M991.09 353.55L1145.43 216.91" stroke="#132e65" stroke-width="1.5"></path><path d="M961.76 555.38L961.76 555.38" stroke="#132e65" stroke-width="1.5"></path><path d="M961.76 555.38L957.89 681.53" stroke="#132e65" stroke-width="1.5"></path><path d="M961.76 555.38L1109.13 502.97" stroke="#132e65" stroke-width="1.5"></path><path d="M961.76 555.38L795.73 538.11" stroke="#132e65" stroke-width="1.5"></path><path d="M957.89 681.53L957.89 681.53" stroke="#132e65" stroke-width="1.5"></path><path d="M957.89 681.53L795.73 538.11" stroke="#132e65" stroke-width="1.5"></path><path d="M957.89 681.53L1109.13 502.97" stroke="#132e65" stroke-width="1.5"></path><path d="M957.89 681.53L839.34 391.48" stroke="#132e65" stroke-width="1.5"></path><path d="M957.89 681.53L644.16 662.12" stroke="#132e65" stroke-width="1.5"></path><path d="M1141.64 -61.45L1141.64 -61.45" stroke="#132e65" stroke-width="1.5"></path><path d="M1141.64 -61.45L1252.32 -92.21" stroke="#132e65" stroke-width="1.5"></path><path d="M1141.64 -61.45L1121.8 68.92" stroke="#132e65" stroke-width="1.5"></path><path d="M1141.64 -61.45L1254.81 42.53" stroke="#132e65" stroke-width="1.5"></path><path d="M1121.8 68.92L1121.8 68.92" stroke="#132e65" stroke-width="1.5"></path><path d="M1121.8 68.92L1254.81 42.53" stroke="#132e65" stroke-width="1.5"></path><path d="M1121.8 68.92L1145.43 216.91" stroke="#132e65" stroke-width="1.5"></path><path d="M1145.43 216.91L1145.43 216.91" stroke="#132e65" stroke-width="1.5"></path><path d="M1145.43 216.91L1260.2 199.42" stroke="#132e65" stroke-width="1.5"></path><path d="M1129.66 406.61L1129.66 406.61" stroke="#132e65" stroke-width="1.5"></path><path d="M1129.66 406.61L1109.13 502.97" stroke="#132e65" stroke-width="1.5"></path><path d="M1129.66 406.61L1244.35 397.95" stroke="#132e65" stroke-width="1.5"></path><path d="M1129.66 406.61L1145.43 216.91" stroke="#132e65" stroke-width="1.5"></path><path d="M1129.66 406.61L1301.65 543.91" stroke="#132e65" stroke-width="1.5"></path><path d="M1129.66 406.61L961.76 555.38" stroke="#132e65" stroke-width="1.5"></path><path d="M1109.13 502.97L1109.13 502.97" stroke="#132e65" stroke-width="1.5"></path><path d="M1252.32 -92.21L1252.32 -92.21" stroke="#132e65" stroke-width="1.5"></path><path d="M1254.81 42.53L1254.81 42.53" stroke="#132e65" stroke-width="1.5"></path><path d="M1254.81 42.53L1252.32 -92.21" stroke="#132e65" stroke-width="1.5"></path><path d="M1260.2 199.42L1260.2 199.42" stroke="#132e65" stroke-width="1.5"></path><path d="M1260.2 199.42L1254.81 42.53" stroke="#132e65" stroke-width="1.5"></path><path d="M1260.2 199.42L1427.45 239.07" stroke="#132e65" stroke-width="1.5"></path><path d="M1244.35 397.95L1244.35 397.95" stroke="#132e65" stroke-width="1.5"></path><path d="M1244.35 397.95L1301.65 543.91" stroke="#132e65" stroke-width="1.5"></path><path d="M1244.35 397.95L1413.16 404.58" stroke="#132e65" stroke-width="1.5"></path><path d="M1244.35 397.95L1109.13 502.97" stroke="#132e65" stroke-width="1.5"></path><path d="M1301.65 543.91L1301.65 543.91" stroke="#132e65" stroke-width="1.5"></path><path d="M1301.65 543.91L1414.44 521.22" stroke="#132e65" stroke-width="1.5"></path><path d="M1301.65 543.91L1409.49 641.66" stroke="#132e65" stroke-width="1.5"></path><path d="M1291.32 700.91L1291.32 700.91" stroke="#132e65" stroke-width="1.5"></path><path d="M1291.32 700.91L1409.49 641.66" stroke="#132e65" stroke-width="1.5"></path><path d="M1291.32 700.91L1301.65 543.91" stroke="#132e65" stroke-width="1.5"></path><path d="M1291.32 700.91L1414.44 521.22" stroke="#132e65" stroke-width="1.5"></path><path d="M1393.85 -82.04L1393.85 -82.04" stroke="#132e65" stroke-width="1.5"></path><path d="M1393.85 -82.04L1252.32 -92.21" stroke="#132e65" stroke-width="1.5"></path><path d="M1393.85 -82.04L1421.98 79.49" stroke="#132e65" stroke-width="1.5"></path><path d="M1421.98 79.49L1421.98 79.49" stroke="#132e65" stroke-width="1.5"></path><path d="M1421.98 79.49L1561.26 66.31" stroke="#132e65" stroke-width="1.5"></path><path d="M1421.98 79.49L1427.45 239.07" stroke="#132e65" stroke-width="1.5"></path><path d="M1421.98 79.49L1254.81 42.53" stroke="#132e65" stroke-width="1.5"></path><path d="M1421.98 79.49L1260.2 199.42" stroke="#132e65" stroke-width="1.5"></path><path d="M1421.98 79.49L1252.32 -92.21" stroke="#132e65" stroke-width="1.5"></path><path d="M1427.45 239.07L1427.45 239.07" stroke="#132e65" stroke-width="1.5"></path><path d="M1427.45 239.07L1413.16 404.58" stroke="#132e65" stroke-width="1.5"></path><path d="M1427.45 239.07L1559.63 408.45" stroke="#132e65" stroke-width="1.5"></path><path d="M1427.45 239.07L1561.26 66.31" stroke="#132e65" stroke-width="1.5"></path><path d="M1413.16 404.58L1413.16 404.58" stroke="#132e65" stroke-width="1.5"></path><path d="M1413.16 404.58L1414.44 521.22" stroke="#132e65" stroke-width="1.5"></path><path d="M1413.16 404.58L1559.63 408.45" stroke="#132e65" stroke-width="1.5"></path><path d="M1414.44 521.22L1414.44 521.22" stroke="#132e65" stroke-width="1.5"></path><path d="M1414.44 521.22L1409.49 641.66" stroke="#132e65" stroke-width="1.5"></path><path d="M1414.44 521.22L1571.77 553.9" stroke="#132e65" stroke-width="1.5"></path><path d="M1414.44 521.22L1559.63 408.45" stroke="#132e65" stroke-width="1.5"></path><path d="M1414.44 521.22L1244.35 397.95" stroke="#132e65" stroke-width="1.5"></path><path d="M1409.49 641.66L1409.49 641.66" stroke="#132e65" stroke-width="1.5"></path><path d="M1409.49 641.66L1571.77 553.9" stroke="#132e65" stroke-width="1.5"></path><path d="M1596.69 -91.72L1596.69 -91.72" stroke="#132e65" stroke-width="1.5"></path><path d="M1596.69 -91.72L1561.26 66.31" stroke="#132e65" stroke-width="1.5"></path><path d="M1596.69 -91.72L1393.85 -82.04" stroke="#132e65" stroke-width="1.5"></path><path d="M1596.69 -91.72L1421.98 79.49" stroke="#132e65" stroke-width="1.5"></path><path d="M1596.69 -91.72L1252.32 -92.21" stroke="#132e65" stroke-width="1.5"></path><path d="M1561.26 66.31L1561.26 66.31" stroke="#132e65" stroke-width="1.5"></path><path d="M1561.26 66.31L1393.85 -82.04" stroke="#132e65" stroke-width="1.5"></path><path d="M1559.63 408.45L1559.63 408.45" stroke="#132e65" stroke-width="1.5"></path><path d="M1559.63 408.45L1571.77 553.9" stroke="#132e65" stroke-width="1.5"></path><path d="M1571.77 553.9L1571.77 553.9" stroke="#132e65" stroke-width="1.5"></path><path d="M1571.77 553.9L1592.55 704.04" stroke="#132e65" stroke-width="1.5"></path><path d="M1592.55 704.04L1592.55 704.04" stroke="#132e65" stroke-width="1.5"></path><path d="M1592.55 704.04L1409.49 641.66" stroke="#132e65" stroke-width="1.5"></path><circle r="5" cx="-55.06" cy="401.42" fill="#132e65"></circle><circle r="5" cx="-84.63" cy="545.81" fill="#132e65"></circle><circle r="5" cx="-78.02" cy="661.87" fill="#132e65"></circle><circle r="5" cx="79.86" cy="382.16" fill="#132e65"></circle><circle r="5" cx="85.37" cy="495.35" fill="#132e65"></circle><circle r="5" cx="106.82" cy="678.02" fill="#132e65"></circle><circle r="5" cx="195.85" cy="389.26" fill="#132e65"></circle><circle r="5" cx="250.62" cy="514.11" fill="#132e65"></circle><circle r="5" cx="201.17" cy="701.02" fill="#132e65"></circle><circle r="5" cx="408.65" cy="353.3" fill="#132e65"></circle><circle r="5" cx="392.52" cy="505.75" fill="#132e65"></circle><circle r="5" cx="387.53" cy="690.33" fill="#132e65"></circle><circle r="5" cx="511.12" cy="380.43" fill="#132e65"></circle><circle r="5" cx="529.05" cy="557.36" fill="#132e65"></circle><circle r="5" cx="521" cy="692.06" fill="#132e65"></circle><circle r="5" cx="649.82" cy="223.79" fill="#132e65"></circle><circle r="5" cx="680.97" cy="393.03" fill="#132e65"></circle><circle r="5" cx="687.27" cy="504.67" fill="#132e65"></circle><circle r="5" cx="644.16" cy="662.12" fill="#132e65"></circle><circle r="5" cx="848.64" cy="78.11" fill="#132e65"></circle><circle r="5" cx="793.4" cy="251.86" fill="#132e65"></circle><circle r="5" cx="839.34" cy="391.48" fill="#132e65"></circle><circle r="5" cx="795.73" cy="538.11" fill="#132e65"></circle><circle r="5" cx="842.26" cy="664.77" fill="#132e65"></circle><circle r="5" cx="969.39" cy="-49.33" fill="#132e65"></circle><circle r="5" cx="943.79" cy="47.83" fill="#132e65"></circle><circle r="5" cx="952.94" cy="191.8" fill="#132e65"></circle><circle r="5" cx="991.09" cy="353.55" fill="#132e65"></circle><circle r="5" cx="961.76" cy="555.38" fill="#132e65"></circle><circle r="5" cx="957.89" cy="681.53" fill="#132e65"></circle><circle r="5" cx="1141.64" cy="-61.45" fill="#132e65"></circle><circle r="5" cx="1121.8" cy="68.92" fill="#132e65"></circle><circle r="5" cx="1145.43" cy="216.91" fill="#132e65"></circle><circle r="5" cx="1129.66" cy="406.61" fill="#132e65"></circle><circle r="5" cx="1109.13" cy="502.97" fill="#132e65"></circle><circle r="5" cx="1252.32" cy="-92.21" fill="#132e65"></circle><circle r="5" cx="1254.81" cy="42.53" fill="#132e65"></circle><circle r="5" cx="1260.2" cy="199.42" fill="#132e65"></circle><circle r="5" cx="1244.35" cy="397.95" fill="#132e65"></circle><circle r="5" cx="1301.65" cy="543.91" fill="#132e65"></circle><circle r="5" cx="1291.32" cy="700.91" fill="#132e65"></circle><circle r="5" cx="1393.85" cy="-82.04" fill="#132e65"></circle><circle r="5" cx="1421.98" cy="79.49" fill="#132e65"></circle><circle r="5" cx="1427.45" cy="239.07" fill="#132e65"></circle><circle r="5" cx="1413.16" cy="404.58" fill="#132e65"></circle><circle r="5" cx="1414.44" cy="521.22" fill="#132e65"></circle><circle r="5" cx="1409.49" cy="641.66" fill="#132e65"></circle><circle r="5" cx="1596.69" cy="-91.72" fill="#132e65"></circle><circle r="5" cx="1561.26" cy="66.31" fill="#132e65"></circle><circle r="5" cx="1559.63" cy="408.45" fill="#132e65"></circle><circle r="5" cx="1571.77" cy="553.9" fill="#132e65"></circle><circle r="5" cx="1592.55" cy="704.04" fill="#132e65"></circle><path d="M390.38 496.08L390.38 496.08" stroke="hsl(228.5, 77.2%, 51.5%)" stroke-width="1.5"></path><path d="M390.38 496.08L244.37 516.16" stroke="hsl(228.5, 77.2%, 51.5%)" stroke-width="1.5"></path><path d="M390.38 496.08L553.82 550.7" stroke="hsl(228.5, 77.2%, 51.5%)" stroke-width="1.5"></path><path d="M390.38 496.08L349.55 675.71" stroke="hsl(228.5, 77.2%, 51.5%)" stroke-width="1.5"></path><path d="M390.38 496.08L260.84 703.37" stroke="hsl(228.5, 77.2%, 51.5%)" stroke-width="1.5"></path><path d="M349.55 675.71L349.55 675.71" stroke="hsl(228.5, 77.2%, 51.5%)" stroke-width="1.5"></path><path d="M349.55 675.71L260.84 703.37" stroke="hsl(228.5, 77.2%, 51.5%)" stroke-width="1.5"></path><path d="M349.55 675.71L244.37 516.16" stroke="hsl(228.5, 77.2%, 51.5%)" stroke-width="1.5"></path><path d="M553.82 550.7L553.82 550.7" stroke="hsl(228.5, 77.2%, 51.5%)" stroke-width="1.5"></path><path d="M553.82 550.7L685.86 507.49" stroke="hsl(228.5, 77.2%, 51.5%)" stroke-width="1.5"></path><path d="M553.82 550.7L555.04 703.96" stroke="hsl(228.5, 77.2%, 51.5%)" stroke-width="1.5"></path><path d="M553.82 550.7L648.11 391.53" stroke="hsl(228.5, 77.2%, 51.5%)" stroke-width="1.5"></path><path d="M553.82 550.7L708.13 710.44" stroke="hsl(228.5, 77.2%, 51.5%)" stroke-width="1.5"></path><path d="M708.13 710.44L708.13 710.44" stroke="hsl(228.5, 77.2%, 51.5%)" stroke-width="1.5"></path><path d="M708.13 710.44L555.04 703.96" stroke="hsl(228.5, 77.2%, 51.5%)" stroke-width="1.5"></path><path d="M708.13 710.44L858.41 649.63" stroke="hsl(228.5, 77.2%, 51.5%)" stroke-width="1.5"></path><path d="M708.13 710.44L685.86 507.49" stroke="hsl(228.5, 77.2%, 51.5%)" stroke-width="1.5"></path><path d="M858.41 649.63L858.41 649.63" stroke="hsl(228.5, 77.2%, 51.5%)" stroke-width="1.5"></path><path d="M858.41 649.63L979.81 702.42" stroke="hsl(228.5, 77.2%, 51.5%)" stroke-width="1.5"></path><path d="M858.41 649.63L839.04 507.16" stroke="hsl(228.5, 77.2%, 51.5%)" stroke-width="1.5"></path><path d="M858.41 649.63L998.3 549.89" stroke="hsl(228.5, 77.2%, 51.5%)" stroke-width="1.5"></path><path d="M858.41 649.63L685.86 507.49" stroke="hsl(228.5, 77.2%, 51.5%)" stroke-width="1.5"></path><path d="M858.41 649.63L850.11 398.67" stroke="hsl(228.5, 77.2%, 51.5%)" stroke-width="1.5"></path><path d="M1308.53 342.43L1308.53 342.43" stroke="hsl(228.5, 77.2%, 51.5%)" stroke-width="1.5"></path><path d="M1308.53 342.43L1265.51 247.76" stroke="hsl(228.5, 77.2%, 51.5%)" stroke-width="1.5"></path><path d="M1308.53 342.43L1417.68 344.21" stroke="hsl(228.5, 77.2%, 51.5%)" stroke-width="1.5"></path><path d="M1454.9 59.14L1454.9 59.14" stroke="hsl(228.5, 77.2%, 51.5%)" stroke-width="1.5"></path><path d="M1454.9 59.14L1559.72 58.54" stroke="hsl(228.5, 77.2%, 51.5%)" stroke-width="1.5"></path><path d="M1454.9 59.14L1405.62 -105.54" stroke="hsl(228.5, 77.2%, 51.5%)" stroke-width="1.5"></path><path d="M1454.9 59.14L1559.14 -90.49" stroke="hsl(228.5, 77.2%, 51.5%)" stroke-width="1.5"></path><path d="M1454.9 59.14L1402.24 237.04" stroke="hsl(228.5, 77.2%, 51.5%)" stroke-width="1.5"></path><path d="M1454.9 59.14L1264.18 48.11" stroke="hsl(228.5, 77.2%, 51.5%)" stroke-width="1.5"></path><path d="M1454.9 59.14L1607.19 200.34" stroke="hsl(228.5, 77.2%, 51.5%)" stroke-width="1.5"></path><path d="M1402.24 237.04L1402.24 237.04" stroke="hsl(228.5, 77.2%, 51.5%)" stroke-width="1.5"></path><path d="M1402.24 237.04L1417.68 344.21" stroke="hsl(228.5, 77.2%, 51.5%)" stroke-width="1.5"></path><path d="M1402.24 237.04L1265.51 247.76" stroke="hsl(228.5, 77.2%, 51.5%)" stroke-width="1.5"></path><path d="M1402.24 237.04L1308.53 342.43" stroke="hsl(228.5, 77.2%, 51.5%)" stroke-width="1.5"></path><path d="M1402.24 237.04L1607.19 200.34" stroke="hsl(228.5, 77.2%, 51.5%)" stroke-width="1.5"></path><path d="M1557.32 404.12L1557.32 404.12" stroke="hsl(228.5, 77.2%, 51.5%)" stroke-width="1.5"></path><path d="M1557.32 404.12L1540.8 538.52" stroke="hsl(228.5, 77.2%, 51.5%)" stroke-width="1.5"></path><path d="M1557.32 404.12L1417.68 344.21" stroke="hsl(228.5, 77.2%, 51.5%)" stroke-width="1.5"></path><path d="M1557.32 404.12L1395.77 497.96" stroke="hsl(228.5, 77.2%, 51.5%)" stroke-width="1.5"></path><path d="M1557.32 404.12L1607.19 200.34" stroke="hsl(228.5, 77.2%, 51.5%)" stroke-width="1.5"></path><path d="M1557.32 404.12L1402.24 237.04" stroke="hsl(228.5, 77.2%, 51.5%)" stroke-width="1.5"></path><path d="M1557.32 404.12L1308.53 342.43" stroke="hsl(228.5, 77.2%, 51.5%)" stroke-width="1.5"></path><path d="M1563.12 664.26L1563.12 664.26" stroke="hsl(228.5, 77.2%, 51.5%)" stroke-width="1.5"></path><path d="M1563.12 664.26L1540.8 538.52" stroke="hsl(228.5, 77.2%, 51.5%)" stroke-width="1.5"></path><path d="M1563.12 664.26L1397.93 658.65" stroke="hsl(228.5, 77.2%, 51.5%)" stroke-width="1.5"></path><path d="M1563.12 664.26L1395.77 497.96" stroke="hsl(228.5, 77.2%, 51.5%)" stroke-width="1.5"></path><path d="M1563.12 664.26L1557.32 404.12" stroke="hsl(228.5, 77.2%, 51.5%)" stroke-width="1.5"></path><path d="M1563.12 664.26L1258.16 700.28" stroke="hsl(228.5, 77.2%, 51.5%)" stroke-width="1.5"></path><path d="M-90.79 524.23L-90.79 524.23" stroke="hsl(228.5, 77.2%, 51.5%)" stroke-width="1.5"></path><path d="M-90.79 524.23L41.88 509.91" stroke="hsl(228.5, 77.2%, 51.5%)" stroke-width="1.5"></path><path d="M-90.79 524.23L-91.19 672.66" stroke="hsl(228.5, 77.2%, 51.5%)" stroke-width="1.5"></path><path d="M-90.79 524.23L58.05 676.48" stroke="hsl(228.5, 77.2%, 51.5%)" stroke-width="1.5"></path><path d="M-90.79 524.23L244.37 516.16" stroke="hsl(228.5, 77.2%, 51.5%)" stroke-width="1.5"></path><path d="M-91.19 672.66L-91.19 672.66" stroke="hsl(228.5, 77.2%, 51.5%)" stroke-width="1.5"></path><path d="M41.88 509.91L41.88 509.91" stroke="hsl(228.5, 77.2%, 51.5%)" stroke-width="1.5"></path><path d="M41.88 509.91L58.05 676.48" stroke="hsl(228.5, 77.2%, 51.5%)" stroke-width="1.5"></path><path d="M41.88 509.91L244.37 516.16" stroke="hsl(228.5, 77.2%, 51.5%)" stroke-width="1.5"></path><path d="M41.88 509.91L-91.19 672.66" stroke="hsl(228.5, 77.2%, 51.5%)" stroke-width="1.5"></path><path d="M58.05 676.48L58.05 676.48" stroke="hsl(228.5, 77.2%, 51.5%)" stroke-width="1.5"></path><path d="M58.05 676.48L-91.19 672.66" stroke="hsl(228.5, 77.2%, 51.5%)" stroke-width="1.5"></path><path d="M58.05 676.48L260.84 703.37" stroke="hsl(228.5, 77.2%, 51.5%)" stroke-width="1.5"></path><path d="M58.05 676.48L244.37 516.16" stroke="hsl(228.5, 77.2%, 51.5%)" stroke-width="1.5"></path><path d="M244.37 516.16L244.37 516.16" stroke="hsl(228.5, 77.2%, 51.5%)" stroke-width="1.5"></path><path d="M244.37 516.16L260.84 703.37" stroke="hsl(228.5, 77.2%, 51.5%)" stroke-width="1.5"></path><path d="M260.84 703.37L260.84 703.37" stroke="hsl(228.5, 77.2%, 51.5%)" stroke-width="1.5"></path><path d="M555.04 703.96L555.04 703.96" stroke="hsl(228.5, 77.2%, 51.5%)" stroke-width="1.5"></path><path d="M555.04 703.96L349.55 675.71" stroke="hsl(228.5, 77.2%, 51.5%)" stroke-width="1.5"></path><path d="M555.04 703.96L685.86 507.49" stroke="hsl(228.5, 77.2%, 51.5%)" stroke-width="1.5"></path><path d="M648.11 391.53L648.11 391.53" stroke="hsl(228.5, 77.2%, 51.5%)" stroke-width="1.5"></path><path d="M648.11 391.53L685.86 507.49" stroke="hsl(228.5, 77.2%, 51.5%)" stroke-width="1.5"></path><path d="M685.86 507.49L685.86 507.49" stroke="hsl(228.5, 77.2%, 51.5%)" stroke-width="1.5"></path><path d="M685.86 507.49L839.04 507.16" stroke="hsl(228.5, 77.2%, 51.5%)" stroke-width="1.5"></path><path d="M685.86 507.49L850.11 398.67" stroke="hsl(228.5, 77.2%, 51.5%)" stroke-width="1.5"></path><path d="M850.11 398.67L850.11 398.67" stroke="hsl(228.5, 77.2%, 51.5%)" stroke-width="1.5"></path><path d="M850.11 398.67L951.43 389.81" stroke="hsl(228.5, 77.2%, 51.5%)" stroke-width="1.5"></path><path d="M839.04 507.16L839.04 507.16" stroke="hsl(228.5, 77.2%, 51.5%)" stroke-width="1.5"></path><path d="M839.04 507.16L850.11 398.67" stroke="hsl(228.5, 77.2%, 51.5%)" stroke-width="1.5"></path><path d="M951.43 389.81L951.43 389.81" stroke="hsl(228.5, 77.2%, 51.5%)" stroke-width="1.5"></path><path d="M951.43 389.81L839.04 507.16" stroke="hsl(228.5, 77.2%, 51.5%)" stroke-width="1.5"></path><path d="M951.43 389.81L998.3 549.89" stroke="hsl(228.5, 77.2%, 51.5%)" stroke-width="1.5"></path><path d="M951.43 389.81L1102.43 505.98" stroke="hsl(228.5, 77.2%, 51.5%)" stroke-width="1.5"></path><path d="M951.43 389.81L1158.78 365.62" stroke="hsl(228.5, 77.2%, 51.5%)" stroke-width="1.5"></path><path d="M951.43 389.81L1101.41 188.68" stroke="hsl(228.5, 77.2%, 51.5%)" stroke-width="1.5"></path><path d="M998.3 549.89L998.3 549.89" stroke="hsl(228.5, 77.2%, 51.5%)" stroke-width="1.5"></path><path d="M998.3 549.89L1102.43 505.98" stroke="hsl(228.5, 77.2%, 51.5%)" stroke-width="1.5"></path><path d="M998.3 549.89L979.81 702.42" stroke="hsl(228.5, 77.2%, 51.5%)" stroke-width="1.5"></path><path d="M998.3 549.89L839.04 507.16" stroke="hsl(228.5, 77.2%, 51.5%)" stroke-width="1.5"></path><path d="M979.81 702.42L979.81 702.42" stroke="hsl(228.5, 77.2%, 51.5%)" stroke-width="1.5"></path><path d="M979.81 702.42L1131.43 711.82" stroke="hsl(228.5, 77.2%, 51.5%)" stroke-width="1.5"></path><path d="M979.81 702.42L1102.43 505.98" stroke="hsl(228.5, 77.2%, 51.5%)" stroke-width="1.5"></path><path d="M1152.32 -54L1152.32 -54" stroke="hsl(228.5, 77.2%, 51.5%)" stroke-width="1.5"></path><path d="M1152.32 -54L1258.87 -85.1" stroke="hsl(228.5, 77.2%, 51.5%)" stroke-width="1.5"></path><path d="M1152.32 -54L1264.18 48.11" stroke="hsl(228.5, 77.2%, 51.5%)" stroke-width="1.5"></path><path d="M1152.32 -54L1101.41 188.68" stroke="hsl(228.5, 77.2%, 51.5%)" stroke-width="1.5"></path><path d="M1101.41 188.68L1101.41 188.68" stroke="hsl(228.5, 77.2%, 51.5%)" stroke-width="1.5"></path><path d="M1101.41 188.68L1265.51 247.76" stroke="hsl(228.5, 77.2%, 51.5%)" stroke-width="1.5"></path><path d="M1101.41 188.68L1158.78 365.62" stroke="hsl(228.5, 77.2%, 51.5%)" stroke-width="1.5"></path><path d="M1101.41 188.68L1264.18 48.11" stroke="hsl(228.5, 77.2%, 51.5%)" stroke-width="1.5"></path><path d="M1158.78 365.62L1158.78 365.62" stroke="hsl(228.5, 77.2%, 51.5%)" stroke-width="1.5"></path><path d="M1158.78 365.62L1102.43 505.98" stroke="hsl(228.5, 77.2%, 51.5%)" stroke-width="1.5"></path><path d="M1158.78 365.62L1308.53 342.43" stroke="hsl(228.5, 77.2%, 51.5%)" stroke-width="1.5"></path><path d="M1158.78 365.62L1265.51 247.76" stroke="hsl(228.5, 77.2%, 51.5%)" stroke-width="1.5"></path><path d="M1102.43 505.98L1102.43 505.98" stroke="hsl(228.5, 77.2%, 51.5%)" stroke-width="1.5"></path><path d="M1102.43 505.98L1249.81 529.71" stroke="hsl(228.5, 77.2%, 51.5%)" stroke-width="1.5"></path><path d="M1102.43 505.98L1131.43 711.82" stroke="hsl(228.5, 77.2%, 51.5%)" stroke-width="1.5"></path><path d="M1131.43 711.82L1131.43 711.82" stroke="hsl(228.5, 77.2%, 51.5%)" stroke-width="1.5"></path><path d="M1131.43 711.82L1258.16 700.28" stroke="hsl(228.5, 77.2%, 51.5%)" stroke-width="1.5"></path><path d="M1131.43 711.82L998.3 549.89" stroke="hsl(228.5, 77.2%, 51.5%)" stroke-width="1.5"></path><path d="M1258.87 -85.1L1258.87 -85.1" stroke="hsl(228.5, 77.2%, 51.5%)" stroke-width="1.5"></path><path d="M1258.87 -85.1L1264.18 48.11" stroke="hsl(228.5, 77.2%, 51.5%)" stroke-width="1.5"></path><path d="M1258.87 -85.1L1405.62 -105.54" stroke="hsl(228.5, 77.2%, 51.5%)" stroke-width="1.5"></path><path d="M1258.87 -85.1L1454.9 59.14" stroke="hsl(228.5, 77.2%, 51.5%)" stroke-width="1.5"></path><path d="M1258.87 -85.1L1559.14 -90.49" stroke="hsl(228.5, 77.2%, 51.5%)" stroke-width="1.5"></path><path d="M1258.87 -85.1L1101.41 188.68" stroke="hsl(228.5, 77.2%, 51.5%)" stroke-width="1.5"></path><path d="M1264.18 48.11L1264.18 48.11" stroke="hsl(228.5, 77.2%, 51.5%)" stroke-width="1.5"></path><path d="M1264.18 48.11L1265.51 247.76" stroke="hsl(228.5, 77.2%, 51.5%)" stroke-width="1.5"></path><path d="M1265.51 247.76L1265.51 247.76" stroke="hsl(228.5, 77.2%, 51.5%)" stroke-width="1.5"></path><path d="M1265.51 247.76L1417.68 344.21" stroke="hsl(228.5, 77.2%, 51.5%)" stroke-width="1.5"></path><path d="M1249.81 529.71L1249.81 529.71" stroke="hsl(228.5, 77.2%, 51.5%)" stroke-width="1.5"></path><path d="M1249.81 529.71L1395.77 497.96" stroke="hsl(228.5, 77.2%, 51.5%)" stroke-width="1.5"></path><path d="M1249.81 529.71L1258.16 700.28" stroke="hsl(228.5, 77.2%, 51.5%)" stroke-width="1.5"></path><path d="M1249.81 529.71L1158.78 365.62" stroke="hsl(228.5, 77.2%, 51.5%)" stroke-width="1.5"></path><path d="M1249.81 529.71L1308.53 342.43" stroke="hsl(228.5, 77.2%, 51.5%)" stroke-width="1.5"></path><path d="M1249.81 529.71L1397.93 658.65" stroke="hsl(228.5, 77.2%, 51.5%)" stroke-width="1.5"></path><path d="M1258.16 700.28L1258.16 700.28" stroke="hsl(228.5, 77.2%, 51.5%)" stroke-width="1.5"></path><path d="M1258.16 700.28L1397.93 658.65" stroke="hsl(228.5, 77.2%, 51.5%)" stroke-width="1.5"></path><path d="M1405.62 -105.54L1405.62 -105.54" stroke="hsl(228.5, 77.2%, 51.5%)" stroke-width="1.5"></path><path d="M1405.62 -105.54L1559.14 -90.49" stroke="hsl(228.5, 77.2%, 51.5%)" stroke-width="1.5"></path><path d="M1417.68 344.21L1417.68 344.21" stroke="hsl(228.5, 77.2%, 51.5%)" stroke-width="1.5"></path><path d="M1417.68 344.21L1395.77 497.96" stroke="hsl(228.5, 77.2%, 51.5%)" stroke-width="1.5"></path><path d="M1395.77 497.96L1395.77 497.96" stroke="hsl(228.5, 77.2%, 51.5%)" stroke-width="1.5"></path><path d="M1395.77 497.96L1540.8 538.52" stroke="hsl(228.5, 77.2%, 51.5%)" stroke-width="1.5"></path><path d="M1397.93 658.65L1397.93 658.65" stroke="hsl(228.5, 77.2%, 51.5%)" stroke-width="1.5"></path><path d="M1397.93 658.65L1395.77 497.96" stroke="hsl(228.5, 77.2%, 51.5%)" stroke-width="1.5"></path><path d="M1397.93 658.65L1540.8 538.52" stroke="hsl(228.5, 77.2%, 51.5%)" stroke-width="1.5"></path><path d="M1559.14 -90.49L1559.14 -90.49" stroke="hsl(228.5, 77.2%, 51.5%)" stroke-width="1.5"></path><path d="M1559.14 -90.49L1559.72 58.54" stroke="hsl(228.5, 77.2%, 51.5%)" stroke-width="1.5"></path><path d="M1559.72 58.54L1559.72 58.54" stroke="hsl(228.5, 77.2%, 51.5%)" stroke-width="1.5"></path><path d="M1559.72 58.54L1607.19 200.34" stroke="hsl(228.5, 77.2%, 51.5%)" stroke-width="1.5"></path><path d="M1559.72 58.54L1405.62 -105.54" stroke="hsl(228.5, 77.2%, 51.5%)" stroke-width="1.5"></path><path d="M1559.72 58.54L1402.24 237.04" stroke="hsl(228.5, 77.2%, 51.5%)" stroke-width="1.5"></path><path d="M1559.72 58.54L1264.18 48.11" stroke="hsl(228.5, 77.2%, 51.5%)" stroke-width="1.5"></path><path d="M1607.19 200.34L1607.19 200.34" stroke="hsl(228.5, 77.2%, 51.5%)" stroke-width="1.5"></path><path d="M1540.8 538.52L1540.8 538.52" stroke="hsl(228.5, 77.2%, 51.5%)" stroke-width="1.5"></path><path d="M1540.8 538.52L1417.68 344.21" stroke="hsl(228.5, 77.2%, 51.5%)" stroke-width="1.5"></path><circle r="25" cx="390.38" cy="496.08" fill="url(#SvgjsRadialGradient2483)"></circle><circle r="25" cx="349.55" cy="675.71" fill="url(#SvgjsRadialGradient2483)"></circle><circle r="25" cx="553.82" cy="550.7" fill="url(#SvgjsRadialGradient2483)"></circle><circle r="25" cx="708.13" cy="710.44" fill="url(#SvgjsRadialGradient2483)"></circle><circle r="25" cx="858.41" cy="649.63" fill="url(#SvgjsRadialGradient2483)"></circle><circle r="25" cx="1308.53" cy="342.43" fill="url(#SvgjsRadialGradient2483)"></circle><circle r="25" cx="1454.9" cy="59.14" fill="url(#SvgjsRadialGradient2483)"></circle><circle r="25" cx="1402.24" cy="237.04" fill="url(#SvgjsRadialGradient2483)"></circle><circle r="25" cx="1557.32" cy="404.12" fill="url(#SvgjsRadialGradient2483)"></circle><circle r="25" cx="1563.12" cy="664.26" fill="url(#SvgjsRadialGradient2483)"></circle><circle r="5" cx="-90.79" cy="524.23" fill="#8b9ad9"></circle><circle r="5" cx="-91.19" cy="672.66" fill="#8b9ad9"></circle><circle r="5" cx="41.88" cy="509.91" fill="#8b9ad9"></circle><circle r="5" cx="58.05" cy="676.48" fill="#8b9ad9"></circle><circle r="5" cx="244.37" cy="516.16" fill="#8b9ad9"></circle><circle r="5" cx="260.84" cy="703.37" fill="#8b9ad9"></circle><circle r="5" cx="555.04" cy="703.96" fill="#8b9ad9"></circle><circle r="5" cx="648.11" cy="391.53" fill="#8b9ad9"></circle><circle r="5" cx="685.86" cy="507.49" fill="#8b9ad9"></circle><circle r="5" cx="850.11" cy="398.67" fill="#8b9ad9"></circle><circle r="5" cx="839.04" cy="507.16" fill="#8b9ad9"></circle><circle r="5" cx="951.43" cy="389.81" fill="#8b9ad9"></circle><circle r="5" cx="998.3" cy="549.89" fill="#8b9ad9"></circle><circle r="5" cx="979.81" cy="702.42" fill="#8b9ad9"></circle><circle r="5" cx="1152.32" cy="-54" fill="#8b9ad9"></circle><circle r="5" cx="1101.41" cy="188.68" fill="#8b9ad9"></circle><circle r="5" cx="1158.78" cy="365.62" fill="#8b9ad9"></circle><circle r="5" cx="1102.43" cy="505.98" fill="#8b9ad9"></circle><circle r="5" cx="1131.43" cy="711.82" fill="#8b9ad9"></circle><circle r="5" cx="1258.87" cy="-85.1" fill="#8b9ad9"></circle><circle r="5" cx="1264.18" cy="48.11" fill="#8b9ad9"></circle><circle r="5" cx="1265.51" cy="247.76" fill="#8b9ad9"></circle><circle r="5" cx="1249.81" cy="529.71" fill="#8b9ad9"></circle><circle r="5" cx="1258.16" cy="700.28" fill="#8b9ad9"></circle><circle r="5" cx="1405.62" cy="-105.54" fill="#8b9ad9"></circle><circle r="5" cx="1417.68" cy="344.21" fill="#8b9ad9"></circle><circle r="5" cx="1395.77" cy="497.96" fill="#8b9ad9"></circle><circle r="5" cx="1397.93" cy="658.65" fill="#8b9ad9"></circle><circle r="5" cx="1559.14" cy="-90.49" fill="#8b9ad9"></circle><circle r="5" cx="1559.72" cy="58.54" fill="#8b9ad9"></circle><circle r="5" cx="1607.19" cy="200.34" fill="#8b9ad9"></circle><circle r="5" cx="1540.8" cy="538.52" fill="#8b9ad9"></circle></g><defs><mask id="SvgjsMask2481"><rect width="1440" height="560" fill="#ffffff"></rect></mask><linearGradient x1="15.28%" y1="-39.29%" x2="84.72%" y2="139.29%" gradientUnits="userSpaceOnUse" id="SvgjsLinearGradient2482"><stop stop-color="rgba(76, 161, 175, 1)" offset="0.1"></stop><stop stop-color="rgba(15, 75, 135, 1)" offset="0.78"></stop></linearGradient><radialGradient id="SvgjsRadialGradient2483"><stop stop-color="#ffffff" offset="0.1"></stop><stop stop-color="#1735b3" offset="0.2"></stop><stop stop-color="rgba(23, 53, 179, 0)" offset="1"></stop></radialGradient></defs></svg>